<!--?xml version="1.0" standalone="no"?-->

<svg version="1.0" xmlns="http://www.w3.org/2000/svg" width="300.000000pt" height="300.000000pt" viewBox="0 0 300.000000 300.000000" preserveAspectRatio="xMidYMid meet">
<g transform="translate(0.000000,300.000000) scale(0.100000,-0.100000)" fill="#030303" stroke="none">

<path class="node" id="node2" d="M1058 1946 c-464 -465 -757 -765 -760 -779 -3 -13 -1 -32 3 -43 4
-10 190 -201 412 -423 373 -372 408 -404 438 -403 30 1 105 73 791 759 751
750 759 758 755 793 -3 19 -14 91 -25 160 -12 69 -31 184 -42 255 -12 72 -26
157 -31 189 -15 98 -46 129 -145 145 -32 6 -115 19 -184 31 -169 28 -377 61
-420 67 -35 5 -40 0 -792 -751z m1333 447 c38 -32 27 -111 -17 -132 -79 -35
-147 30 -114 110 19 45 90 57 131 22z"></path>
</g>
<g transform="translate(0.000000,300.000000) scale(0.100000,-0.100000)" fill="#FFFFFF" stroke="none">
<path class="node" id="node3" d="M1 2883 c0 -101 2 -114 12 -88 39 98 107 163 207 198 8 3 -38 6 -102
6 l-118 1 1 -117z"></path>
<path class="node" id="node4" d="M2780 2993 c100 -35 168 -100 207 -198 10 -26 12 -13 12 88 l1 117
-117 -1 c-65 0 -111 -3 -103 -6z"></path>

<path class="node" id="node6" d="M2304 2408 c-81 -21 -61 -158 23 -158 58 0 97 46 86 103 -9 47 -54
70 -109 55z"></path>
<path class="node" id="node7" d="M1 118 l-1 -118 118 1 c100 0 113 2 87 12 -98 39 -163 107 -198 207
-3 8 -6 -38 -6 -102z"></path>
<path class="node" id="node8" d="M2990 217 c0 -21 -40 -90 -74 -125 -32 -35 -68 -58 -121 -79 -26 -10
-13 -12 88 -12 l117 -1 0 115 c0 63 -2 115 -5 115 -3 0 -5 -6 -5 -13z"></path>
</g>
</svg>